<svg width="140" height="28" viewBox="0 0 140 28" fill="none" xmlns="http://www.w3.org/2000/svg">
<path d="M8.56258 11.7658L14.0003 6.32842L19.4409 11.7687L22.605 8.60472L14.0003 0L5.39853 8.60184L8.56258 11.7658Z" fill="#2A2A2A"/>
<path d="M6.32815 13.9995L3.16415 10.8356L0 13.9997L3.164 17.1636L6.32815 13.9995Z" fill="#2A2A2A"/>
<path d="M8.56258 16.2342L14.0003 21.6716L19.4407 16.2315L22.6065 19.3937L22.605 19.3955L14.0003 28L5.39389 19.394L8.56258 16.2342Z" fill="#2A2A2A"/>
<path d="M24.8368 17.1651L28.0009 14.001L24.837 10.8371L21.6728 14.0012L24.8368 17.1651Z" fill="#2A2A2A"/>
<path d="M17.2097 13.9983H17.211L14.0003 10.7877L10.7881 13.9999L10.7925 14.0045L14.0003 17.2123L17.211 14.0017L17.2126 13.9999L17.2097 13.9983Z" fill="#2A2A2A"/>
<path d="M32.9335 6.78466H39.8152C41.5232 6.78466 42.8147 7.22297 43.69 8.09961C44.3674 8.77854 44.706 9.62002 44.706 10.6238V10.6663C44.706 11.0904 44.6536 11.4653 44.5481 11.7904C44.4429 12.1159 44.3022 12.4089 44.1264 12.6706C43.951 12.9324 43.7471 13.1622 43.5153 13.3599C43.2833 13.558 43.0341 13.7279 42.7672 13.869C43.6257 14.1945 44.3015 14.6361 44.7943 15.1948C45.2868 15.7536 45.5334 16.5279 45.5334 17.5175V17.5597C45.5334 18.2387 45.4029 18.8325 45.1417 19.3418C44.8805 19.8506 44.5063 20.275 44.0191 20.6145C43.5319 20.9539 42.9461 21.2083 42.2614 21.3781C41.5767 21.5477 40.8179 21.6324 39.9853 21.6324H32.9335V6.78466ZM39.1272 12.7873C39.8486 12.7873 40.4214 12.6639 40.8453 12.4162C41.2695 12.1688 41.4816 11.7692 41.4816 11.2178V11.1754C41.4816 10.6807 41.2976 10.3025 40.93 10.0406C40.5623 9.77902 40.0319 9.6481 39.3393 9.6481H36.1151V12.7873H39.1272ZM39.997 18.7692C40.7182 18.7692 41.2834 18.6387 41.6939 18.3769C42.1039 18.1153 42.3092 17.7086 42.3092 17.157V17.1148C42.3092 16.6199 42.1181 16.2275 41.7364 15.9374C41.3544 15.6479 40.7394 15.5028 39.8908 15.5028H36.1151V18.7694L39.997 18.7692Z" fill="#2A2A2A"/>
<path d="M49.6318 6.78466H52.8987V21.6329H49.6318V6.78466Z" fill="#2A2A2A"/>
<path d="M57.8466 6.78466H60.8582L67.816 15.927V6.78466H71.0402V21.6329H68.2616L61.0705 12.1938V21.6329H57.8466V6.78466Z" fill="#2A2A2A"/>
<path d="M80.9302 6.67873H83.9421L90.306 21.6329H86.8907L85.5331 18.3028H79.2543L77.8968 21.6329H74.566L80.9302 6.67873ZM84.3665 15.4177L82.3936 10.6028L80.4213 15.4177H84.3665Z" fill="#2A2A2A"/>
<path d="M93.8323 6.78466H96.8447L103.802 15.927V6.78466H107.026V21.6329H104.248L97.0565 12.1938V21.6329H93.8323V6.78466Z" fill="#2A2A2A"/>
<path d="M118.783 21.8872C117.693 21.8872 116.683 21.689 115.749 21.2934C114.816 20.8978 114.01 20.3566 113.331 19.6706C112.652 18.9848 112.122 18.1752 111.74 17.2419C111.358 16.3085 111.167 15.3115 111.167 14.2509V14.2087C111.167 13.148 111.358 12.1548 111.74 11.2284C112.122 10.3023 112.652 9.4891 113.331 8.78916C114.01 8.08922 114.823 7.53745 115.77 7.13452C116.717 6.73158 117.765 6.53011 118.91 6.53011C119.602 6.53011 120.235 6.58695 120.808 6.69973C121.381 6.81318 121.9 6.96843 122.367 7.16636C122.834 7.36451 123.265 7.6049 123.661 7.88753C124.057 8.1706 124.425 8.48154 124.764 8.821L122.686 11.2178C122.105 10.6948 121.515 10.2844 120.914 9.98757C120.313 9.69078 119.638 9.54217 118.888 9.54217C118.266 9.54217 117.69 9.66248 117.16 9.90287C116.63 10.1433 116.173 10.4754 115.791 10.8996C115.41 11.3238 115.113 11.8154 114.9 12.3738C114.689 12.9326 114.583 13.5299 114.583 14.1662V14.2084C114.583 14.8447 114.689 15.446 114.9 16.0112C115.113 16.5772 115.406 17.0719 115.781 17.496C116.155 17.9202 116.608 18.2564 117.138 18.5038C117.669 18.7515 118.252 18.8749 118.888 18.8749C119.737 18.8749 120.454 18.7194 121.041 18.4083C121.628 18.0976 122.212 17.6732 122.791 17.1356L124.87 19.2356C124.488 19.6458 124.092 20.0136 123.682 20.3385C123.272 20.664 122.823 20.9431 122.335 21.1766C121.847 21.4097 121.313 21.5869 120.734 21.7067C120.154 21.8268 119.503 21.8872 118.783 21.8872Z" fill="#2A2A2A"/>
<path d="M128.715 6.78466H139.893V9.69079H131.939V12.7028H138.939V15.6088H131.939V18.727H140V21.6329H128.715V6.78466Z" fill="#2A2A2A"/>
</svg>
